<svg xmlns="http://www.w3.org/2000/svg" xmlns:xlink="http://www.w3.org/1999/xlink" contentStyleType="text/css" data-diagram-type="SEQUENCE" height="1724px" preserveAspectRatio="none" style="width:3405px;height:1724px;background:#FFFFFF;" version="1.1" viewBox="0 0 3405 1724" width="3405px" zoomAndPan="magnify"><defs/><g><rect fill="none" height="381.5313" style="stroke:#000000;stroke-width:1.5;" width="2918.4043" x="470.3096" y="1245.3438"/><g><title>Client</title><rect fill="#000000" fill-opacity="0.00000" height="1562.5781" width="8" x="24.2651" y="81.2969"/><line style="stroke:#181818;stroke-width:0.5;stroke-dasharray:5,5;" x1="28" x2="28" y1="81.2969" y2="1643.875"/></g><g><title>API . Controller</title><rect fill="#000000" fill-opacity="0.00000" height="1562.5781" width="8" x="195.9878" y="81.2969"/><line style="stroke:#181818;stroke-width:0.5;stroke-dasharray:5,5;" x1="199.5186" x2="199.5186" y1="81.2969" y2="1643.875"/></g><g><title>ProcessInitiation .Domain.</title><rect fill="#000000" fill-opacity="0.00000" height="1562.5781" width="8" x="364.9712" y="81.2969"/><line style="stroke:#181818;stroke-width:0.5;stroke-dasharray:5,5;" x1="368.457" x2="368.457" y1="81.2969" y2="1643.875"/></g><g><title>Process .Domain.</title><rect fill="#000000" fill-opacity="0.00000" height="1562.5781" width="8" x="544.9902" y="81.2969"/><line style="stroke:#181818;stroke-width:0.5;stroke-dasharray:5,5;" x1="548.3096" x2="548.3096" y1="81.2969" y2="1643.875"/></g><g><title>MessageBus .Dispatcher.</title><rect fill="#000000" fill-opacity="0.00000" height="1562.5781" width="8" x="719.8525" y="81.2969"/><line style="stroke:#181818;stroke-width:0.5;stroke-dasharray:5,5;" x1="723.6709" x2="723.6709" y1="81.2969" y2="1643.875"/></g><g><title>AddProcessStampMiddleware</title><rect fill="#000000" fill-opacity="0.00000" height="1562.5781" width="8" x="936.6021" y="81.2969"/><line style="stroke:#181818;stroke-width:0.5;stroke-dasharray:5,5;" x1="940.0342" x2="940.0342" y1="81.2969" y2="1643.875"/></g><g><title>ProcessLoadedEventMiddleware</title><rect fill="#000000" fill-opacity="0.00000" height="1562.5781" width="8" x="1177.0415" y="81.2969"/><line style="stroke:#181818;stroke-width:0.5;stroke-dasharray:5,5;" x1="1180.1699" x2="1180.1699" y1="81.2969" y2="1643.875"/></g><g><title>EventBus .Dispatcher.</title><rect fill="#000000" fill-opacity="0.00000" height="1562.5781" width="8" x="1401.2593" y="81.2969"/><line style="stroke:#181818;stroke-width:0.5;stroke-dasharray:5,5;" x1="1404.7041" x2="1404.7041" y1="81.2969" y2="1643.875"/></g><g><title>PresentProcessOnProcessLoadedEventListener</title><rect fill="#000000" fill-opacity="0.00000" height="1562.5781" width="8" x="1667.8462" y="81.2969"/><line style="stroke:#181818;stroke-width:0.5;stroke-dasharray:5,5;" x1="1671.8145" x2="1671.8145" y1="81.2969" y2="1643.875"/></g><g><title>UseCaseCommandHandler</title><rect fill="#000000" fill-opacity="0.00000" height="1562.5781" width="8" x="1949.626" y="81.2969"/><line style="stroke:#181818;stroke-width:0.5;stroke-dasharray:5,5;" x1="1952.8779" x2="1952.8779" y1="81.2969" y2="1643.875"/></g><g><title>UseCase AttacherInitiation</title><rect fill="#000000" fill-opacity="0.00000" height="1562.5781" width="8" x="2160.6777" y="81.2969"/><line style="stroke:#181818;stroke-width:0.5;stroke-dasharray:5,5;" x1="2164.374" x2="2164.374" y1="81.2969" y2="1643.875"/></g><g><title>UseCase StartInitiation</title><rect fill="#000000" fill-opacity="0.00000" height="1562.5781" width="8" x="2358.3481" y="81.2969"/><line style="stroke:#181818;stroke-width:0.5;stroke-dasharray:5,5;" x1="2361.9814" x2="2361.9814" y1="81.2969" y2="1643.875"/></g><g><title>ProcessMercurePresenter</title><rect fill="#000000" fill-opacity="0.00000" height="1562.5781" width="8" x="2551.9648" y="81.2969"/><line style="stroke:#181818;stroke-width:0.5;stroke-dasharray:5,5;" x1="2555.7148" x2="2555.7148" y1="81.2969" y2="1643.875"/></g><g><title>ErrorListMercurePresenter</title><rect fill="#000000" fill-opacity="0.00000" height="1562.5781" width="8" x="2757.2095" y="81.2969"/><line style="stroke:#181818;stroke-width:0.5;stroke-dasharray:5,5;" x1="2760.2148" x2="2760.2148" y1="81.2969" y2="1643.875"/></g><g><title>MercureProcessUpdateFactory</title><rect fill="#000000" fill-opacity="0.00000" height="1562.5781" width="8" x="2980.2925" y="81.2969"/><line style="stroke:#181818;stroke-width:0.5;stroke-dasharray:5,5;" x1="2984.2041" x2="2984.2041" y1="81.2969" y2="1643.875"/></g><g><title>MercureBroadcaster</title><rect fill="#000000" fill-opacity="0.00000" height="1562.5781" width="8" x="3182.4849" y="81.2969"/><line style="stroke:#181818;stroke-width:0.5;stroke-dasharray:5,5;" x1="3186.3809" x2="3186.3809" y1="81.2969" y2="1643.875"/></g><g><title>Mercure Hub</title><rect fill="#000000" fill-opacity="0.00000" height="1562.5781" width="8" x="3322.6514" y="81.2969"/><line style="stroke:#181818;stroke-width:0.5;stroke-dasharray:5,5;" x1="3326.5889" x2="3326.5889" y1="81.2969" y2="1643.875"/></g><g class="participant participant-head" data-participant="Client"><text fill="#000000" font-family="sans-serif" font-size="14" lengthAdjust="spacing" textLength="40.5303" x="5" y="77.9951">Client</text><ellipse cx="28.2651" cy="13.5" fill="#E2E2F0" rx="8" ry="8" style="stroke:#181818;stroke-width:0.5;"/><path d="M28.2651,21.5 L28.2651,48.5 M15.2651,29.5 L41.2651,29.5 M28.2651,48.5 L15.2651,63.5 M28.2651,48.5 L41.2651,63.5" fill="none" style="stroke:#181818;stroke-width:0.5;"/></g><g class="participant participant-tail" data-participant="Client"><text fill="#000000" font-family="sans-serif" font-size="14" lengthAdjust="spacing" textLength="40.5303" x="5" y="1655.8701">Client</text><ellipse cx="28.2651" cy="1667.6719" fill="#E2E2F0" rx="8" ry="8" style="stroke:#181818;stroke-width:0.5;"/><path d="M28.2651,1675.6719 L28.2651,1702.6719 M15.2651,1683.6719 L41.2651,1683.6719 M28.2651,1702.6719 L15.2651,1717.6719 M28.2651,1702.6719 L41.2651,1717.6719" fill="none" style="stroke:#181818;stroke-width:0.5;"/></g><g class="participant participant-head" data-participant="API"><rect fill="#E2E2F0" height="30.2969" rx="2.5" ry="2.5" style="stroke:#181818;stroke-width:0.5;" width="118.9385" x="140.5186" y="50"/><text fill="#000000" font-family="sans-serif" font-size="14" lengthAdjust="spacing" textLength="104.9385" x="147.5186" y="69.9951">API / Controller</text></g><g class="participant participant-tail" data-participant="API"><rect fill="#E2E2F0" height="30.2969" rx="2.5" ry="2.5" style="stroke:#181818;stroke-width:0.5;" width="118.9385" x="140.5186" y="1642.875"/><text fill="#000000" font-family="sans-serif" font-size="14" lengthAdjust="spacing" textLength="104.9385" x="147.5186" y="1662.8701">API / Controller</text></g><g class="participant participant-head" data-participant="PI"><rect fill="#E2E2F0" height="30.2969" rx="2.5" ry="2.5" style="stroke:#181818;stroke-width:0.5;" width="199.0283" x="269.457" y="50"/><text fill="#000000" font-family="sans-serif" font-size="14" lengthAdjust="spacing" textLength="185.0283" x="276.457" y="69.9951">ProcessInitiation (Domain)</text></g><g class="participant participant-tail" data-participant="PI"><rect fill="#E2E2F0" height="30.2969" rx="2.5" ry="2.5" style="stroke:#181818;stroke-width:0.5;" width="199.0283" x="269.457" y="1642.875"/><text fill="#000000" font-family="sans-serif" font-size="14" lengthAdjust="spacing" textLength="185.0283" x="276.457" y="1662.8701">ProcessInitiation (Domain)</text></g><g class="participant participant-head" data-participant="PROC"><rect fill="#E2E2F0" height="30.2969" rx="2.5" ry="2.5" style="stroke:#181818;stroke-width:0.5;" width="137.3613" x="480.3096" y="50"/><text fill="#000000" font-family="sans-serif" font-size="14" lengthAdjust="spacing" textLength="123.3613" x="487.3096" y="69.9951">Process (Domain)</text></g><g class="participant participant-tail" data-participant="PROC"><rect fill="#E2E2F0" height="30.2969" rx="2.5" ry="2.5" style="stroke:#181818;stroke-width:0.5;" width="137.3613" x="480.3096" y="1642.875"/><text fill="#000000" font-family="sans-serif" font-size="14" lengthAdjust="spacing" textLength="123.3613" x="487.3096" y="1662.8701">Process (Domain)</text></g><g class="participant participant-head" data-participant="MB"><rect fill="#E2E2F0" height="30.2969" rx="2.5" ry="2.5" style="stroke:#181818;stroke-width:0.5;" width="192.3633" x="627.6709" y="50"/><text fill="#000000" font-family="sans-serif" font-size="14" lengthAdjust="spacing" textLength="178.3633" x="634.6709" y="69.9951">MessageBus (Dispatcher)</text></g><g class="participant participant-tail" data-participant="MB"><rect fill="#E2E2F0" height="30.2969" rx="2.5" ry="2.5" style="stroke:#181818;stroke-width:0.5;" width="192.3633" x="627.6709" y="1642.875"/><text fill="#000000" font-family="sans-serif" font-size="14" lengthAdjust="spacing" textLength="178.3633" x="634.6709" y="1662.8701">MessageBus (Dispatcher)</text></g><g class="participant participant-head" data-participant="MW_ADD"><rect fill="#E2E2F0" height="30.2969" rx="2.5" ry="2.5" style="stroke:#181818;stroke-width:0.5;" width="221.1357" x="830.0342" y="50"/><text fill="#000000" font-family="sans-serif" font-size="14" lengthAdjust="spacing" textLength="207.1357" x="837.0342" y="69.9951">AddProcessStampMiddleware</text></g><g class="participant participant-tail" data-participant="MW_ADD"><rect fill="#E2E2F0" height="30.2969" rx="2.5" ry="2.5" style="stroke:#181818;stroke-width:0.5;" width="221.1357" x="830.0342" y="1642.875"/><text fill="#000000" font-family="sans-serif" font-size="14" lengthAdjust="spacing" textLength="207.1357" x="837.0342" y="1662.8701">AddProcessStampMiddleware</text></g><g class="participant participant-head" data-participant="MW_LOADED"><rect fill="#E2E2F0" height="30.2969" rx="2.5" ry="2.5" style="stroke:#181818;stroke-width:0.5;" width="239.7432" x="1061.1699" y="50"/><text fill="#000000" font-family="sans-serif" font-size="14" lengthAdjust="spacing" textLength="225.7432" x="1068.1699" y="69.9951">ProcessLoadedEventMiddleware</text></g><g class="participant participant-tail" data-participant="MW_LOADED"><rect fill="#E2E2F0" height="30.2969" rx="2.5" ry="2.5" style="stroke:#181818;stroke-width:0.5;" width="239.7432" x="1061.1699" y="1642.875"/><text fill="#000000" font-family="sans-serif" font-size="14" lengthAdjust="spacing" textLength="225.7432" x="1068.1699" y="1662.8701">ProcessLoadedEventMiddleware</text></g><g class="participant participant-head" data-participant="EB"><rect fill="#E2E2F0" height="30.2969" rx="2.5" ry="2.5" style="stroke:#181818;stroke-width:0.5;" width="171.1104" x="1319.7041" y="50"/><text fill="#000000" font-family="sans-serif" font-size="14" lengthAdjust="spacing" textLength="157.1104" x="1326.7041" y="69.9951">EventBus (Dispatcher)</text></g><g class="participant participant-tail" data-participant="EB"><rect fill="#E2E2F0" height="30.2969" rx="2.5" ry="2.5" style="stroke:#181818;stroke-width:0.5;" width="171.1104" x="1319.7041" y="1642.875"/><text fill="#000000" font-family="sans-serif" font-size="14" lengthAdjust="spacing" textLength="157.1104" x="1326.7041" y="1662.8701">EventBus (Dispatcher)</text></g><g class="participant participant-head" data-participant="LISTENER"><rect fill="#E2E2F0" height="30.2969" rx="2.5" ry="2.5" style="stroke:#181818;stroke-width:0.5;" width="342.0635" x="1500.8145" y="50"/><text fill="#000000" font-family="sans-serif" font-size="14" lengthAdjust="spacing" textLength="328.0635" x="1507.8145" y="69.9951">PresentProcessOnProcessLoadedEventListener</text></g><g class="participant participant-tail" data-participant="LISTENER"><rect fill="#E2E2F0" height="30.2969" rx="2.5" ry="2.5" style="stroke:#181818;stroke-width:0.5;" width="342.0635" x="1500.8145" y="1642.875"/><text fill="#000000" font-family="sans-serif" font-size="14" lengthAdjust="spacing" textLength="328.0635" x="1507.8145" y="1662.8701">PresentProcessOnProcessLoadedEventListener</text></g><g class="participant participant-head" data-participant="HANDLER"><rect fill="#E2E2F0" height="30.2969" rx="2.5" ry="2.5" style="stroke:#181818;stroke-width:0.5;" width="201.4961" x="1852.8779" y="50"/><text fill="#000000" font-family="sans-serif" font-size="14" lengthAdjust="spacing" textLength="187.4961" x="1859.8779" y="69.9951">UseCaseCommandHandler</text></g><g class="participant participant-tail" data-participant="HANDLER"><rect fill="#E2E2F0" height="30.2969" rx="2.5" ry="2.5" style="stroke:#181818;stroke-width:0.5;" width="201.4961" x="1852.8779" y="1642.875"/><text fill="#000000" font-family="sans-serif" font-size="14" lengthAdjust="spacing" textLength="187.4961" x="1859.8779" y="1662.8701">UseCaseCommandHandler</text></g><g class="participant participant-head" data-participant="UC_ATTACH"><rect fill="#E2E2F0" height="30.2969" rx="2.5" ry="2.5" style="stroke:#181818;stroke-width:0.5;" width="200.6074" x="2064.374" y="50"/><text fill="#000000" font-family="sans-serif" font-size="14" lengthAdjust="spacing" textLength="186.6074" x="2071.374" y="69.9951">UseCase AttacherInitiation</text></g><g class="participant participant-tail" data-participant="UC_ATTACH"><rect fill="#E2E2F0" height="30.2969" rx="2.5" ry="2.5" style="stroke:#181818;stroke-width:0.5;" width="200.6074" x="2064.374" y="1642.875"/><text fill="#000000" font-family="sans-serif" font-size="14" lengthAdjust="spacing" textLength="186.6074" x="2071.374" y="1662.8701">UseCase AttacherInitiation</text></g><g class="participant participant-head" data-participant="UC_START"><rect fill="#E2E2F0" height="30.2969" rx="2.5" ry="2.5" style="stroke:#181818;stroke-width:0.5;" width="174.7334" x="2274.9814" y="50"/><text fill="#000000" font-family="sans-serif" font-size="14" lengthAdjust="spacing" textLength="160.7334" x="2281.9814" y="69.9951">UseCase StartInitiation</text></g><g class="participant participant-tail" data-participant="UC_START"><rect fill="#E2E2F0" height="30.2969" rx="2.5" ry="2.5" style="stroke:#181818;stroke-width:0.5;" width="174.7334" x="2274.9814" y="1642.875"/><text fill="#000000" font-family="sans-serif" font-size="14" lengthAdjust="spacing" textLength="160.7334" x="2281.9814" y="1662.8701">UseCase StartInitiation</text></g><g class="participant participant-head" data-participant="PRES"><rect fill="#E2E2F0" height="30.2969" rx="2.5" ry="2.5" style="stroke:#181818;stroke-width:0.5;" width="192.5" x="2459.7148" y="50"/><text fill="#000000" font-family="sans-serif" font-size="14" lengthAdjust="spacing" textLength="178.5" x="2466.7148" y="69.9951">ProcessMercurePresenter</text></g><g class="participant participant-tail" data-participant="PRES"><rect fill="#E2E2F0" height="30.2969" rx="2.5" ry="2.5" style="stroke:#181818;stroke-width:0.5;" width="192.5" x="2459.7148" y="1642.875"/><text fill="#000000" font-family="sans-serif" font-size="14" lengthAdjust="spacing" textLength="178.5" x="2466.7148" y="1662.8701">ProcessMercurePresenter</text></g><g class="participant participant-head" data-participant="PRES_ERR"><rect fill="#E2E2F0" height="30.2969" rx="2.5" ry="2.5" style="stroke:#181818;stroke-width:0.5;" width="197.9893" x="2662.2148" y="50"/><text fill="#000000" font-family="sans-serif" font-size="14" lengthAdjust="spacing" textLength="183.9893" x="2669.2148" y="69.9951">ErrorListMercurePresenter</text></g><g class="participant participant-tail" data-participant="PRES_ERR"><rect fill="#E2E2F0" height="30.2969" rx="2.5" ry="2.5" style="stroke:#181818;stroke-width:0.5;" width="197.9893" x="2662.2148" y="1642.875"/><text fill="#000000" font-family="sans-serif" font-size="14" lengthAdjust="spacing" textLength="183.9893" x="2669.2148" y="1662.8701">ErrorListMercurePresenter</text></g><g class="participant participant-head" data-participant="UPDATE_FACTORY"><rect fill="#E2E2F0" height="30.2969" rx="2.5" ry="2.5" style="stroke:#181818;stroke-width:0.5;" width="228.1768" x="2870.2041" y="50"/><text fill="#000000" font-family="sans-serif" font-size="14" lengthAdjust="spacing" textLength="214.1768" x="2877.2041" y="69.9951">MercureProcessUpdateFactory</text></g><g class="participant participant-tail" data-participant="UPDATE_FACTORY"><rect fill="#E2E2F0" height="30.2969" rx="2.5" ry="2.5" style="stroke:#181818;stroke-width:0.5;" width="228.1768" x="2870.2041" y="1642.875"/><text fill="#000000" font-family="sans-serif" font-size="14" lengthAdjust="spacing" textLength="214.1768" x="2877.2041" y="1662.8701">MercureProcessUpdateFactory</text></g><g class="participant participant-head" data-participant="BROADCAST"><rect fill="#E2E2F0" height="30.2969" rx="2.5" ry="2.5" style="stroke:#181818;stroke-width:0.5;" width="156.208" x="3108.3809" y="50"/><text fill="#000000" font-family="sans-serif" font-size="14" lengthAdjust="spacing" textLength="142.208" x="3115.3809" y="69.9951">MercureBroadcaster</text></g><g class="participant participant-tail" data-participant="BROADCAST"><rect fill="#E2E2F0" height="30.2969" rx="2.5" ry="2.5" style="stroke:#181818;stroke-width:0.5;" width="156.208" x="3108.3809" y="1642.875"/><text fill="#000000" font-family="sans-serif" font-size="14" lengthAdjust="spacing" textLength="142.208" x="3115.3809" y="1662.8701">MercureBroadcaster</text></g><g class="participant participant-head" data-participant="HUB"><rect fill="#E2E2F0" height="30.2969" rx="2.5" ry="2.5" style="stroke:#181818;stroke-width:0.5;" width="104.125" x="3274.5889" y="50"/><text fill="#000000" font-family="sans-serif" font-size="14" lengthAdjust="spacing" textLength="90.125" x="3281.5889" y="69.9951">Mercure Hub</text></g><g class="participant participant-tail" data-participant="HUB"><rect fill="#E2E2F0" height="30.2969" rx="2.5" ry="2.5" style="stroke:#181818;stroke-width:0.5;" width="104.125" x="3274.5889" y="1642.875"/><text fill="#000000" font-family="sans-serif" font-size="14" lengthAdjust="spacing" textLength="90.125" x="3281.5889" y="1662.8701">Mercure Hub</text></g><rect fill="#EEEEEE" height="3" style="stroke:#EEEEEE;stroke-width:1;" width="3398.7139" x="0" y="111.8633"/><line style="stroke:#000000;stroke-width:1;" x1="0" x2="3398.7139" y1="111.8633" y2="111.8633"/><line style="stroke:#000000;stroke-width:1;" x1="0" x2="3398.7139" y1="114.8633" y2="114.8633"/><rect fill="#EEEEEE" height="23.1328" style="stroke:#000000;stroke-width:2;" width="146.0693" x="1626.3223" y="101.2969"/><text fill="#000000" font-family="sans-serif" font-size="13" font-weight="bold" lengthAdjust="spacing" textLength="127.5435" x="1632.3223" y="117.3638">Cr&#233;ation c&#244;t&#233; API</text><g class="message" data-participant-1="Client" data-participant-2="API"><polygon fill="#181818" points="187.9878,151.5625,197.9878,155.5625,187.9878,159.5625,191.9878,155.5625" style="stroke:#181818;stroke-width:1;"/><line style="stroke:#181818;stroke-width:1;" x1="28.2651" x2="193.9878" y1="155.5625" y2="155.5625"/><text fill="#000000" font-family="sans-serif" font-size="13" lengthAdjust="spacing" textLength="89.2734" x="35.2651" y="150.4966">POST /... (ex.)</text></g><g class="message" data-participant-1="API" data-participant-2="PI"><polygon fill="#181818" points="356.9712,180.6953,366.9712,184.6953,356.9712,188.6953,360.9712,184.6953" style="stroke:#181818;stroke-width:1;"/><line style="stroke:#181818;stroke-width:1;" x1="199.9878" x2="362.9712" y1="184.6953" y2="184.6953"/><text fill="#000000" font-family="sans-serif" font-size="13" lengthAdjust="spacing" textLength="105.6187" x="206.9878" y="179.6294">initiate(process)</text></g><g class="message" data-participant-1="PI" data-participant-2="PROC"><polygon fill="#181818" points="536.9902,209.8281,546.9902,213.8281,536.9902,217.8281,540.9902,213.8281" style="stroke:#181818;stroke-width:1;"/><line style="stroke:#181818;stroke-width:1;" x1="368.9712" x2="542.9902" y1="213.8281" y2="213.8281"/><text fill="#000000" font-family="sans-serif" font-size="13" lengthAdjust="spacing" textLength="156.019" x="375.9712" y="208.7622">create(status=initiated)</text></g><path d="M553,226.8281 L553,281.8281 L871,281.8281 L871,236.8281 L861,226.8281 L553,226.8281" fill="#FEFFDD" style="stroke:#181818;stroke-width:0.5;"/><path d="M861,226.8281 L861,236.8281 L871,236.8281 L861,226.8281" fill="#FEFFDD" style="stroke:#181818;stroke-width:0.5;"/><text fill="#000000" font-family="sans-serif" font-size="13" lengthAdjust="spacing" textLength="262.3486" x="559" y="243.895">Repr&#233;sente process_presenter_domain :</text><text fill="#000000" font-family="sans-serif" font-size="13" lengthAdjust="spacing" textLength="244.3086" x="559" y="259.0278">- ProcessPresenter + ProcessProvider</text><text fill="#000000" font-family="sans-serif" font-size="13" lengthAdjust="spacing" textLength="297.1528" x="559" y="274.1606">- apr&#232;s present(), provide() expose le Process</text><g class="message" data-participant-1="PI" data-participant-2="API"><polygon fill="#181818" points="210.9878,304.3594,200.9878,308.3594,210.9878,312.3594,206.9878,308.3594" style="stroke:#181818;stroke-width:1;"/><line style="stroke:#181818;stroke-width:1;stroke-dasharray:2,2;" x1="204.9878" x2="367.9712" y1="308.3594" y2="308.3594"/><text fill="#000000" font-family="sans-serif" font-size="13" lengthAdjust="spacing" textLength="109.6875" x="216.9878" y="303.2935">payload + topics</text></g><g class="message" data-participant-1="API" data-participant-2="Client"><polygon fill="#181818" points="39.2651,333.4922,29.2651,337.4922,39.2651,341.4922,35.2651,337.4922" style="stroke:#181818;stroke-width:1;"/><line style="stroke:#181818;stroke-width:1;stroke-dasharray:2,2;" x1="33.2651" x2="198.9878" y1="337.4922" y2="337.4922"/><text fill="#000000" font-family="sans-serif" font-size="13" lengthAdjust="spacing" textLength="147.7227" x="45.2651" y="332.4263">202 Accepted + topics</text></g><rect fill="#EEEEEE" height="3" style="stroke:#EEEEEE;stroke-width:1;" width="3398.7139" x="0" y="366.0586"/><line style="stroke:#000000;stroke-width:1;" x1="0" x2="3398.7139" y1="366.0586" y2="366.0586"/><line style="stroke:#000000;stroke-width:1;" x1="0" x2="3398.7139" y1="369.0586" y2="369.0586"/><rect fill="#EEEEEE" height="23.1328" style="stroke:#000000;stroke-width:2;" width="58.5225" x="1670.0957" y="355.4922"/><text fill="#000000" font-family="sans-serif" font-size="13" font-weight="bold" lengthAdjust="spacing" textLength="39.9966" x="1676.0957" y="371.5591">Envoi</text><g class="message" data-participant-1="API" data-participant-2="MB"><polygon fill="#181818" points="711.8525,405.7578,721.8525,409.7578,711.8525,413.7578,715.8525,409.7578" style="stroke:#181818;stroke-width:1;"/><line style="stroke:#181818;stroke-width:1;" x1="199.9878" x2="717.8525" y1="409.7578" y2="409.7578"/><text fill="#000000" font-family="sans-serif" font-size="13" lengthAdjust="spacing" textLength="132.2979" x="206.9878" y="404.6919">dispatch(Command)</text></g><g class="message" data-participant-1="MB" data-participant-2="MW_ADD"><polygon fill="#181818" points="928.6021,434.8906,938.6021,438.8906,928.6021,442.8906,932.6021,438.8906" style="stroke:#181818;stroke-width:1;"/><line style="stroke:#181818;stroke-width:1;" x1="723.8525" x2="934.6021" y1="438.8906" y2="438.8906"/><text fill="#000000" font-family="sans-serif" font-size="13" lengthAdjust="spacing" textLength="159.9292" x="730.8525" y="433.8247">stamp(Process instance)</text></g><g class="message" data-participant-1="MW_ADD" data-participant-2="MB"><polygon fill="#181818" points="734.8525,464.0234,724.8525,468.0234,734.8525,472.0234,730.8525,468.0234" style="stroke:#181818;stroke-width:1;"/><line style="stroke:#181818;stroke-width:1;" x1="728.8525" x2="939.6021" y1="468.0234" y2="468.0234"/><text fill="#000000" font-family="sans-serif" font-size="13" lengthAdjust="spacing" textLength="77.251" x="740.8525" y="462.9575">to transport</text></g><rect fill="#EEEEEE" height="3" style="stroke:#EEEEEE;stroke-width:1;" width="3398.7139" x="0" y="496.5898"/><line style="stroke:#000000;stroke-width:1;" x1="0" x2="3398.7139" y1="496.5898" y2="496.5898"/><line style="stroke:#000000;stroke-width:1;" x1="0" x2="3398.7139" y1="499.5898" y2="499.5898"/><rect fill="#EEEEEE" height="23.1328" style="stroke:#000000;stroke-width:2;" width="212.3579" x="1593.178" y="486.0234"/><text fill="#000000" font-family="sans-serif" font-size="13" font-weight="bold" lengthAdjust="spacing" textLength="193.832" x="1599.178" y="502.0903">R&#233;ception (avant Handler)</text><g class="message" data-participant-1="MB" data-participant-2="MW_LOADED"><polygon fill="#181818" points="1169.0415,536.2891,1179.0415,540.2891,1169.0415,544.2891,1173.0415,540.2891" style="stroke:#181818;stroke-width:1;"/><line style="stroke:#181818;stroke-width:1;" x1="723.8525" x2="1175.0415" y1="540.2891" y2="540.2891"/><text fill="#000000" font-family="sans-serif" font-size="13" lengthAdjust="spacing" textLength="47.7915" x="730.8525" y="535.2231">receive</text></g><g class="message" data-participant-1="MW_LOADED" data-participant-2="EB"><polygon fill="#181818" points="1393.2593,565.4219,1403.2593,569.4219,1393.2593,573.4219,1397.2593,569.4219" style="stroke:#181818;stroke-width:1;"/><line style="stroke:#181818;stroke-width:1;" x1="1181.0415" x2="1399.2593" y1="569.4219" y2="569.4219"/><text fill="#000000" font-family="sans-serif" font-size="13" lengthAdjust="spacing" textLength="200.2178" x="1188.0415" y="564.356">dispatch(ProcessLoadedEvent)</text></g><g class="message" data-participant-1="EB" data-participant-2="LISTENER"><polygon fill="#181818" points="1659.8462,594.5547,1669.8462,598.5547,1659.8462,602.5547,1663.8462,598.5547" style="stroke:#181818;stroke-width:1;"/><line style="stroke:#181818;stroke-width:1;" x1="1405.2593" x2="1665.8462" y1="598.5547" y2="598.5547"/><text fill="#000000" font-family="sans-serif" font-size="13" lengthAdjust="spacing" textLength="189.1855" x="1412.2593" y="593.4888">handle(ProcessLoadedEvent)</text></g><g class="message" data-participant-1="LISTENER" data-participant-2="PROC"><polygon fill="#181818" points="559.9902,623.6875,549.9902,627.6875,559.9902,631.6875,555.9902,627.6875" style="stroke:#181818;stroke-width:1;"/><line style="stroke:#181818;stroke-width:1;" x1="553.9902" x2="1670.8462" y1="627.6875" y2="627.6875"/><text fill="#000000" font-family="sans-serif" font-size="13" lengthAdjust="spacing" textLength="172.6943" x="565.9902" y="622.6216">present(ProcessResponse)</text></g><rect fill="#EEEEEE" height="3" style="stroke:#EEEEEE;stroke-width:1;" width="3398.7139" x="0" y="656.2539"/><line style="stroke:#000000;stroke-width:1;" x1="0" x2="3398.7139" y1="656.2539" y2="656.2539"/><line style="stroke:#000000;stroke-width:1;" x1="0" x2="3398.7139" y1="659.2539" y2="659.2539"/><rect fill="#EEEEEE" height="23.1328" style="stroke:#000000;stroke-width:2;" width="207.1021" x="1595.8059" y="645.6875"/><text fill="#000000" font-family="sans-serif" font-size="13" font-weight="bold" lengthAdjust="spacing" textLength="188.5762" x="1601.8059" y="661.7544">Use case (post-r&#233;ception)</text><g class="message" data-participant-1="HANDLER" data-participant-2="UC_ATTACH"><polygon fill="#181818" points="2152.6777,695.9531,2162.6777,699.9531,2152.6777,703.9531,2156.6777,699.9531" style="stroke:#181818;stroke-width:1;"/><line style="stroke:#181818;stroke-width:1;" x1="1953.626" x2="2158.6777" y1="699.9531" y2="699.9531"/><text fill="#000000" font-family="sans-serif" font-size="13" lengthAdjust="spacing" textLength="101.8989" x="1960.626" y="694.8872">attach(process)</text></g><path d="M2169,712.9531 L2169,767.9531 L2462,767.9531 L2462,722.9531 L2452,712.9531 L2169,712.9531" fill="#FEFFDD" style="stroke:#181818;stroke-width:0.5;"/><path d="M2452,712.9531 L2452,722.9531 L2462,722.9531 L2452,712.9531" fill="#FEFFDD" style="stroke:#181818;stroke-width:0.5;"/><text fill="#000000" font-family="sans-serif" font-size="13" lengthAdjust="spacing" textLength="145.6025" x="2175" y="730.02">Attache les callbacks :</text><text fill="#000000" font-family="sans-serif" font-size="13" lengthAdjust="spacing" textLength="272.9365" x="2175" y="745.1528">- Started / InProgress / Completed / Failed</text><text fill="#000000" font-family="sans-serif" font-size="13" lengthAdjust="spacing" textLength="233.9111" x="2175" y="760.2856">- Broadcaster (MercureBroadcaster)</text><g class="message" data-participant-1="UC_ATTACH" data-participant-2="PROC"><polygon fill="#181818" points="559.9902,790.4844,549.9902,794.4844,559.9902,798.4844,555.9902,794.4844" style="stroke:#181818;stroke-width:1;"/><line style="stroke:#181818;stroke-width:1;" x1="553.9902" x2="2163.6777" y1="794.4844" y2="794.4844"/><text fill="#000000" font-family="sans-serif" font-size="13" lengthAdjust="spacing" textLength="442.6665" x="565.9902" y="789.4185">onStateChanged(Started/InProgress/Completed/Failed + Broadcast)</text></g><g class="message" data-participant-1="HANDLER" data-participant-2="UC_START"><polygon fill="#181818" points="2350.3481,819.6172,2360.3481,823.6172,2350.3481,827.6172,2354.3481,823.6172" style="stroke:#181818;stroke-width:1;"/><line style="stroke:#181818;stroke-width:1;" x1="1953.626" x2="2356.3481" y1="823.6172" y2="823.6172"/><text fill="#000000" font-family="sans-serif" font-size="13" lengthAdjust="spacing" textLength="90.6636" x="1960.626" y="818.5513">start(process)</text></g><g class="message" data-participant-1="UC_START" data-participant-2="PRES"><polygon fill="#181818" points="2543.9648,848.75,2553.9648,852.75,2543.9648,856.75,2547.9648,852.75" style="stroke:#181818;stroke-width:1;"/><line style="stroke:#181818;stroke-width:1;" x1="2362.3481" x2="2549.9648" y1="852.75" y2="852.75"/><text fill="#000000" font-family="sans-serif" font-size="13" lengthAdjust="spacing" textLength="91.603" x="2369.3481" y="847.6841">present(Start)</text></g><g class="message" data-participant-1="PRES" data-participant-2="BROADCAST"><polygon fill="#181818" points="3174.4849,877.8828,3184.4849,881.8828,3174.4849,885.8828,3178.4849,881.8828" style="stroke:#181818;stroke-width:1;"/><line style="stroke:#181818;stroke-width:1;" x1="2555.9648" x2="3180.4849" y1="881.8828" y2="881.8828"/><text fill="#000000" font-family="sans-serif" font-size="13" lengthAdjust="spacing" textLength="74.896" x="2562.9648" y="876.8169">broadcast()</text></g><g class="message" data-participant-1="BROADCAST" data-participant-2="UPDATE_FACTORY"><polygon fill="#181818" points="2995.2925,907.0156,2985.2925,911.0156,2995.2925,915.0156,2991.2925,911.0156" style="stroke:#181818;stroke-width:1;"/><line style="stroke:#181818;stroke-width:1;" x1="2989.2925" x2="3185.4849" y1="911.0156" y2="911.0156"/><text fill="#000000" font-family="sans-serif" font-size="13" lengthAdjust="spacing" textLength="51.6953" x="3001.2925" y="905.9497">create()</text></g><g class="message" data-participant-1="UPDATE_FACTORY" data-participant-2="BROADCAST"><polygon fill="#181818" points="3174.4849,936.1484,3184.4849,940.1484,3174.4849,944.1484,3178.4849,940.1484" style="stroke:#181818;stroke-width:1;"/><line style="stroke:#181818;stroke-width:1;stroke-dasharray:2,2;" x1="2984.2925" x2="3180.4849" y1="940.1484" y2="940.1484"/><text fill="#000000" font-family="sans-serif" font-size="13" lengthAdjust="spacing" textLength="99.2837" x="2991.2925" y="935.0825">Update(START)</text></g><g class="message" data-participant-1="BROADCAST" data-participant-2="HUB"><polygon fill="#181818" points="3314.6514,965.2813,3324.6514,969.2813,3314.6514,973.2813,3318.6514,969.2813" style="stroke:#181818;stroke-width:1;"/><line style="stroke:#181818;stroke-width:1;" x1="3186.4849" x2="3320.6514" y1="969.2813" y2="969.2813"/><text fill="#000000" font-family="sans-serif" font-size="13" lengthAdjust="spacing" textLength="104.2031" x="3193.4849" y="964.2153">publish(Update)</text></g><rect fill="#EEEEEE" height="3" style="stroke:#EEEEEE;stroke-width:1;" width="3398.7139" x="0" y="997.8477"/><line style="stroke:#000000;stroke-width:1;" x1="0" x2="3398.7139" y1="997.8477" y2="997.8477"/><line style="stroke:#000000;stroke-width:1;" x1="0" x2="3398.7139" y1="1000.8477" y2="1000.8477"/><rect fill="#EEEEEE" height="23.1328" style="stroke:#000000;stroke-width:2;" width="90.4258" x="1654.144" y="987.2813"/><text fill="#000000" font-family="sans-serif" font-size="13" font-weight="bold" lengthAdjust="spacing" textLength="71.8999" x="1660.144" y="1003.3481">Ex&#233;cution</text><g class="message" data-participant-1="HANDLER" data-participant-2="PROC"><polygon fill="#181818" points="559.9902,1037.5469,549.9902,1041.5469,559.9902,1045.5469,555.9902,1041.5469" style="stroke:#181818;stroke-width:1;"/><line style="stroke:#181818;stroke-width:1;" x1="553.9902" x2="1952.626" y1="1041.5469" y2="1041.5469"/><text fill="#000000" font-family="sans-serif" font-size="13" lengthAdjust="spacing" textLength="66.8345" x="565.9902" y="1036.481">progress()</text></g><g class="message" data-participant-1="PROC" data-participant-2="PRES"><polygon fill="#181818" points="2543.9648,1066.6797,2553.9648,1070.6797,2543.9648,1074.6797,2547.9648,1070.6797" style="stroke:#181818;stroke-width:1;"/><line style="stroke:#181818;stroke-width:1;" x1="548.9902" x2="2549.9648" y1="1070.6797" y2="1070.6797"/><text fill="#000000" font-family="sans-serif" font-size="13" lengthAdjust="spacing" textLength="128.1973" x="555.9902" y="1065.6138">present(InProgress)</text></g><g class="message" data-participant-1="PRES" data-participant-2="BROADCAST"><polygon fill="#181818" points="3174.4849,1095.8125,3184.4849,1099.8125,3174.4849,1103.8125,3178.4849,1099.8125" style="stroke:#181818;stroke-width:1;"/><line style="stroke:#181818;stroke-width:1;" x1="2555.9648" x2="3180.4849" y1="1099.8125" y2="1099.8125"/><text fill="#000000" font-family="sans-serif" font-size="13" lengthAdjust="spacing" textLength="74.896" x="2562.9648" y="1094.7466">broadcast()</text></g><g class="message" data-participant-1="BROADCAST" data-participant-2="UPDATE_FACTORY"><polygon fill="#181818" points="2995.2925,1124.9453,2985.2925,1128.9453,2995.2925,1132.9453,2991.2925,1128.9453" style="stroke:#181818;stroke-width:1;"/><line style="stroke:#181818;stroke-width:1;" x1="2989.2925" x2="3185.4849" y1="1128.9453" y2="1128.9453"/><text fill="#000000" font-family="sans-serif" font-size="13" lengthAdjust="spacing" textLength="51.6953" x="3001.2925" y="1123.8794">create()</text></g><g class="message" data-participant-1="UPDATE_FACTORY" data-participant-2="BROADCAST"><polygon fill="#181818" points="3174.4849,1154.0781,3184.4849,1158.0781,3174.4849,1162.0781,3178.4849,1158.0781" style="stroke:#181818;stroke-width:1;"/><line style="stroke:#181818;stroke-width:1;stroke-dasharray:2,2;" x1="2984.2925" x2="3180.4849" y1="1158.0781" y2="1158.0781"/><text fill="#000000" font-family="sans-serif" font-size="13" lengthAdjust="spacing" textLength="148.2114" x="2991.2925" y="1153.0122">Update(IN_PROGRESS)</text></g><g class="message" data-participant-1="BROADCAST" data-participant-2="HUB"><polygon fill="#181818" points="3314.6514,1183.2109,3324.6514,1187.2109,3314.6514,1191.2109,3318.6514,1187.2109" style="stroke:#181818;stroke-width:1;"/><line style="stroke:#181818;stroke-width:1;" x1="3186.4849" x2="3320.6514" y1="1187.2109" y2="1187.2109"/><text fill="#000000" font-family="sans-serif" font-size="13" lengthAdjust="spacing" textLength="104.2031" x="3193.4849" y="1182.145">publish(Update)</text></g><rect fill="#EEEEEE" height="3" style="stroke:#EEEEEE;stroke-width:1;" width="3398.7139" x="0" y="1215.7773"/><line style="stroke:#000000;stroke-width:1;" x1="0" x2="3398.7139" y1="1215.7773" y2="1215.7773"/><line style="stroke:#000000;stroke-width:1;" x1="0" x2="3398.7139" y1="1218.7773" y2="1218.7773"/><rect fill="#EEEEEE" height="23.1328" style="stroke:#000000;stroke-width:2;" width="104.1685" x="1647.2727" y="1205.2109"/><text fill="#000000" font-family="sans-serif" font-size="13" font-weight="bold" lengthAdjust="spacing" textLength="85.6426" x="1653.2727" y="1221.2778">Finalisation</text><path d="M470.3096,1245.3438 L534.7524,1245.3438 L534.7524,1252.4766 L524.7524,1262.4766 L470.3096,1262.4766 L470.3096,1245.3438" fill="#EEEEEE" style="stroke:#000000;stroke-width:1.5;"/><rect fill="none" height="381.5313" style="stroke:#000000;stroke-width:1.5;" width="2918.4043" x="470.3096" y="1245.3438"/><text fill="#000000" font-family="sans-serif" font-size="13" font-weight="bold" lengthAdjust="spacing" textLength="19.4429" x="485.3096" y="1258.4106">alt</text><text fill="#000000" font-family="sans-serif" font-size="11" font-weight="bold" lengthAdjust="spacing" textLength="52.8569" x="549.7524" y="1257.5542">[Succ&#232;s]</text><g class="message" data-participant-1="HANDLER" data-participant-2="PROC"><polygon fill="#181818" points="559.9902,1279.6094,549.9902,1283.6094,559.9902,1287.6094,555.9902,1283.6094" style="stroke:#181818;stroke-width:1;"/><line style="stroke:#181818;stroke-width:1;" x1="553.9902" x2="1952.626" y1="1283.6094" y2="1283.6094"/><text fill="#000000" font-family="sans-serif" font-size="13" lengthAdjust="spacing" textLength="70.8652" x="565.9902" y="1278.5435">complete()</text></g><g class="message" data-participant-1="PROC" data-participant-2="PRES"><polygon fill="#181818" points="2543.9648,1308.7422,2553.9648,1312.7422,2543.9648,1316.7422,2547.9648,1312.7422" style="stroke:#181818;stroke-width:1;"/><line style="stroke:#181818;stroke-width:1;" x1="548.9902" x2="2549.9648" y1="1312.7422" y2="1312.7422"/><text fill="#000000" font-family="sans-serif" font-size="13" lengthAdjust="spacing" textLength="130.749" x="555.9902" y="1307.6763">present(Completed)</text></g><g class="message" data-participant-1="PRES" data-participant-2="BROADCAST"><polygon fill="#181818" points="3174.4849,1337.875,3184.4849,1341.875,3174.4849,1345.875,3178.4849,1341.875" style="stroke:#181818;stroke-width:1;"/><line style="stroke:#181818;stroke-width:1;" x1="2555.9648" x2="3180.4849" y1="1341.875" y2="1341.875"/><text fill="#000000" font-family="sans-serif" font-size="13" lengthAdjust="spacing" textLength="74.896" x="2562.9648" y="1336.8091">broadcast()</text></g><g class="message" data-participant-1="BROADCAST" data-participant-2="UPDATE_FACTORY"><polygon fill="#181818" points="2995.2925,1367.0078,2985.2925,1371.0078,2995.2925,1375.0078,2991.2925,1371.0078" style="stroke:#181818;stroke-width:1;"/><line style="stroke:#181818;stroke-width:1;" x1="2989.2925" x2="3185.4849" y1="1371.0078" y2="1371.0078"/><text fill="#000000" font-family="sans-serif" font-size="13" lengthAdjust="spacing" textLength="51.6953" x="3001.2925" y="1365.9419">create()</text></g><g class="message" data-participant-1="UPDATE_FACTORY" data-participant-2="BROADCAST"><polygon fill="#181818" points="3174.4849,1396.1406,3184.4849,1400.1406,3174.4849,1404.1406,3178.4849,1400.1406" style="stroke:#181818;stroke-width:1;"/><line style="stroke:#181818;stroke-width:1;stroke-dasharray:2,2;" x1="2984.2925" x2="3180.4849" y1="1400.1406" y2="1400.1406"/><text fill="#000000" font-family="sans-serif" font-size="13" lengthAdjust="spacing" textLength="137.2109" x="2991.2925" y="1395.0747">Update(COMPLETED)</text></g><g class="message" data-participant-1="BROADCAST" data-participant-2="HUB"><polygon fill="#181818" points="3314.6514,1425.2734,3324.6514,1429.2734,3314.6514,1433.2734,3318.6514,1429.2734" style="stroke:#181818;stroke-width:1;"/><line style="stroke:#181818;stroke-width:1;" x1="3186.4849" x2="3320.6514" y1="1429.2734" y2="1429.2734"/><text fill="#000000" font-family="sans-serif" font-size="13" lengthAdjust="spacing" textLength="104.2031" x="3193.4849" y="1424.2075">publish(Update)</text></g><line style="stroke:#000000;stroke-width:1;stroke-dasharray:2,2;" x1="470.3096" x2="3388.7139" y1="1438.2734" y2="1438.2734"/><text fill="#000000" font-family="sans-serif" font-size="11" font-weight="bold" lengthAdjust="spacing" textLength="45.9014" x="475.3096" y="1448.4839">[&#201;chec]</text><g class="message" data-participant-1="HANDLER" data-participant-2="PROC"><polygon fill="#181818" points="559.9902,1469.2109,549.9902,1473.2109,559.9902,1477.2109,555.9902,1473.2109" style="stroke:#181818;stroke-width:1;"/><line style="stroke:#181818;stroke-width:1;" x1="553.9902" x2="1952.626" y1="1473.2109" y2="1473.2109"/><text fill="#000000" font-family="sans-serif" font-size="13" lengthAdjust="spacing" textLength="68.6689" x="565.9902" y="1468.145">fail(errors)</text></g><g class="message" data-participant-1="PROC" data-participant-2="PRES_ERR"><polygon fill="#181818" points="2749.2095,1498.3438,2759.2095,1502.3438,2749.2095,1506.3438,2753.2095,1502.3438" style="stroke:#181818;stroke-width:1;"/><line style="stroke:#181818;stroke-width:1;" x1="548.9902" x2="2755.2095" y1="1502.3438" y2="1502.3438"/><text fill="#000000" font-family="sans-serif" font-size="13" lengthAdjust="spacing" textLength="156.6792" x="555.9902" y="1497.2778">present(Failed + errors)</text></g><g class="message" data-participant-1="PRES_ERR" data-participant-2="BROADCAST"><polygon fill="#181818" points="3174.4849,1527.4766,3184.4849,1531.4766,3174.4849,1535.4766,3178.4849,1531.4766" style="stroke:#181818;stroke-width:1;"/><line style="stroke:#181818;stroke-width:1;" x1="2761.2095" x2="3180.4849" y1="1531.4766" y2="1531.4766"/><text fill="#000000" font-family="sans-serif" font-size="13" lengthAdjust="spacing" textLength="74.896" x="2768.2095" y="1526.4106">broadcast()</text></g><g class="message" data-participant-1="BROADCAST" data-participant-2="UPDATE_FACTORY"><polygon fill="#181818" points="2995.2925,1556.6094,2985.2925,1560.6094,2995.2925,1564.6094,2991.2925,1560.6094" style="stroke:#181818;stroke-width:1;"/><line style="stroke:#181818;stroke-width:1;" x1="2989.2925" x2="3185.4849" y1="1560.6094" y2="1560.6094"/><text fill="#000000" font-family="sans-serif" font-size="13" lengthAdjust="spacing" textLength="51.6953" x="3001.2925" y="1555.5435">create()</text></g><g class="message" data-participant-1="UPDATE_FACTORY" data-participant-2="BROADCAST"><polygon fill="#181818" points="3174.4849,1585.7422,3184.4849,1589.7422,3174.4849,1593.7422,3178.4849,1589.7422" style="stroke:#181818;stroke-width:1;"/><line style="stroke:#181818;stroke-width:1;stroke-dasharray:2,2;" x1="2984.2925" x2="3180.4849" y1="1589.7422" y2="1589.7422"/><text fill="#000000" font-family="sans-serif" font-size="13" lengthAdjust="spacing" textLength="102.8955" x="2991.2925" y="1584.6763">Update(FAILED)</text></g><g class="message" data-participant-1="BROADCAST" data-participant-2="HUB"><polygon fill="#181818" points="3314.6514,1614.875,3324.6514,1618.875,3314.6514,1622.875,3318.6514,1618.875" style="stroke:#181818;stroke-width:1;"/><line style="stroke:#181818;stroke-width:1;" x1="3186.4849" x2="3320.6514" y1="1618.875" y2="1618.875"/><text fill="#000000" font-family="sans-serif" font-size="13" lengthAdjust="spacing" textLength="104.2031" x="3193.4849" y="1613.8091">publish(Update)</text></g><!--SRC=[lLN1Rjiu4BthAmOzITXDlEXHW1UGPRanOCU6hA3eoM0eDY4gKm99UzDFs3_PtFSF_6CTag8KsUeYU-d1GC9vd3VpE6z4gAubf1LdGWSDaPfJtX2XuKEoNS84qbfeMLSLan-0AC338MehQygKMWgkET6y5X3EwmFX8hBudy0lGFac3OQuDOB84viT3PIhXcZwpAI3hsSNXPPbctQdoQ5PyxAis5z4CeV-l4_cys2qZ5LDIbPc9-pz-jPgayop-V2UXOuMbSqk6PX2R4kq4TUCAwuq4wskg-MkoEwp_ABE1yLIWh_wS22YlCEVVuYxv7w-GlmO71AjYIcjVnLxvo7T9qMHf7VZjr0zgQ-lx8eaByRrMpD9ZvArlRQLRVDiTw6QbBKqxVuKly_o_780MgWbUcXAejc2c67zxWhRpfCYso-IjDZaNqRlpYIAJOdoHBCSNpHDTiKe6kwEZqxPXraGJAUGolEhcsXw_bUVNytimtGQEA_0pP_c88RjPbV0vFRs5aBsSXi51eKn4-9EInOsheieQ6Cuxp5GoKnCQQAFQkgnPHI8MZEG_EbPG_tLcGCWPmtMOsM3nkktRnFlI-icY15u0wrcdShmMtzKdtZ9f8KHJFYFyid2w7VyquR32DXBK-D4LCpV39WemHHcM_2zD-HxXHeZWQuRJfLh7gDEenW-_l4H4afPWutrAADk9aurDtAsUgrdCPIjfy9stgDWFRCnQ-4ObB5tw5S85_Y_e0nHDkwpw1gq948rjTIMAZ-_cWhiRY8dy-QjaIB3tr4ulySW6MNyn8BkoCIpj-LTUpaACfl6spY6Pqin2lMWVXJy6xJed67nGc5dfdoq9r3Zpn3VHD_8hXjRVhi7JAxEtZ4Gkm3wkHkELBy7mAyAV6g5B5NrIEWtrGwINGZuS1DOcltr98tivfDmQ2hc0Wl2ArPQz1kxGNXjmQWVeOw_Lw0MIAPPYh8ziJ9icISzxwHZdJXE7ASkEmerrC7kB3imKlSg-82ZpNQzy9OFxOc79jXjYXWUFKSO1TsnPHaieCxEo388M3kyoUSsMMZhkCY8YmShEZvMN3s73kSc87l1Dp_Q0Hw-k9yU9r5e6jYarztrAlxA5fVtUopd4_BjtjleWWk2XyItIYeDkoEbkATmn02kMgVjK61D9ZxUVZSv7lIV2XZ8-rGmo7SfaMxMsrLMPFEHxADQi0hjVluRVKd7-_wA5WYP-QogwyxDnxJlldFB4EvWlrQ7HR9S_GyHHFa3]--></g></svg>
