<svg xmlns="http://www.w3.org/2000/svg" xmlns:xlink="http://www.w3.org/1999/xlink" contentStyleType="text/css" data-diagram-type="ACTIVITY" height="352px" preserveAspectRatio="none" style="width:325px;height:352px;background:#FFFFFF;" version="1.1" viewBox="0 0 325 352" width="325px" zoomAndPan="magnify"><defs/><g><ellipse cx="162.5654" cy="20" fill="#222222" rx="10" ry="10" style="stroke:#222222;stroke-width:1;"/><rect fill="#F1F1F1" height="33.9688" rx="12.5" ry="12.5" style="stroke:#181818;stroke-width:0.5;" width="122.668" x="101.2314" y="50"/><text fill="#000000" font-family="sans-serif" font-size="12" lengthAdjust="spacing" textLength="102.668" x="111.2314" y="71.1387">Process Initiation</text><rect fill="#F1F1F1" height="33.9688" rx="12.5" ry="12.5" style="stroke:#181818;stroke-width:0.5;" width="303.1309" x="11" y="103.9688"/><text fill="#000000" font-family="sans-serif" font-size="12" lengthAdjust="spacing" textLength="283.1309" x="21" y="125.1074">Attach Callbacks (state change + notifications)</text><rect fill="#F1F1F1" height="33.9688" rx="12.5" ry="12.5" style="stroke:#181818;stroke-width:0.5;" width="161.4922" x="81.8193" y="157.9375"/><text fill="#000000" font-family="sans-serif" font-size="12" lengthAdjust="spacing" textLength="141.4922" x="91.8193" y="179.0762">Start Process (Mercure)</text><rect fill="#F1F1F1" height="33.9688" rx="12.5" ry="12.5" style="stroke:#181818;stroke-width:0.5;" width="119.2227" x="102.9541" y="211.9063"/><text fill="#000000" font-family="sans-serif" font-size="12" lengthAdjust="spacing" textLength="99.2227" x="112.9541" y="233.0449">Update Progress</text><rect fill="#F1F1F1" height="33.9688" rx="12.5" ry="12.5" style="stroke:#181818;stroke-width:0.5;" width="172.4258" x="76.3525" y="265.875"/><text fill="#000000" font-family="sans-serif" font-size="12" lengthAdjust="spacing" textLength="152.4258" x="86.3525" y="287.0137">Finalize or Handle Failure</text><ellipse cx="162.5654" cy="330.8438" fill="none" rx="11" ry="11" style="stroke:#222222;stroke-width:1;"/><ellipse cx="162.5654" cy="330.8438" fill="#222222" rx="6" ry="6" style="stroke:#222222;stroke-width:1;"/><line style="stroke:#181818;stroke-width:1;" x1="162.5654" x2="162.5654" y1="30" y2="50"/><polygon fill="#181818" points="158.5654,40,162.5654,50,166.5654,40,162.5654,44" style="stroke:#181818;stroke-width:1;"/><line style="stroke:#181818;stroke-width:1;" x1="162.5654" x2="162.5654" y1="83.9688" y2="103.9688"/><polygon fill="#181818" points="158.5654,93.9688,162.5654,103.9688,166.5654,93.9688,162.5654,97.9688" style="stroke:#181818;stroke-width:1;"/><line style="stroke:#181818;stroke-width:1;" x1="162.5654" x2="162.5654" y1="137.9375" y2="157.9375"/><polygon fill="#181818" points="158.5654,147.9375,162.5654,157.9375,166.5654,147.9375,162.5654,151.9375" style="stroke:#181818;stroke-width:1;"/><line style="stroke:#181818;stroke-width:1;" x1="162.5654" x2="162.5654" y1="191.9063" y2="211.9063"/><polygon fill="#181818" points="158.5654,201.9063,162.5654,211.9063,166.5654,201.9063,162.5654,205.9063" style="stroke:#181818;stroke-width:1;"/><line style="stroke:#181818;stroke-width:1;" x1="162.5654" x2="162.5654" y1="245.875" y2="265.875"/><polygon fill="#181818" points="158.5654,255.875,162.5654,265.875,166.5654,255.875,162.5654,259.875" style="stroke:#181818;stroke-width:1;"/><line style="stroke:#181818;stroke-width:1;" x1="162.5654" x2="162.5654" y1="299.8438" y2="319.8438"/><polygon fill="#181818" points="158.5654,309.8438,162.5654,319.8438,166.5654,309.8438,162.5654,313.8438" style="stroke:#181818;stroke-width:1;"/><!--SRC=[DOn12i9034NtSueiAzwWNObGT248uW7IDBR18LEIkF7qpXJS_lVVyq2BrD-j4Bl3LIK4GueEgJz58ArmnfmdfBT3vu71G2lgmd04BI4leVtlXseyMWt-iUx6HX_ZHfxRtDIA5gkiBgCePlao58CBwfmPHfHS_qFoADiF]--></g></svg>