<svg xmlns="http://www.w3.org/2000/svg" xmlns:xlink="http://www.w3.org/1999/xlink" contentStyleType="text/css" data-diagram-type="ACTIVITY" height="954px" preserveAspectRatio="none" style="width:353px;height:954px;background:#FFFFFF;" version="1.1" viewBox="0 0 353 954" width="353px" zoomAndPan="magnify"><defs/><g><ellipse cx="176.7256" cy="20" fill="#222222" rx="10" ry="10" style="stroke:#222222;stroke-width:1;"/><rect fill="#F1F1F1" height="33.9688" rx="12.5" ry="12.5" style="stroke:#181818;stroke-width:0.5;" width="142.4199" x="105.5156" y="50"/><text fill="#000000" font-family="sans-serif" font-size="12" lengthAdjust="spacing" textLength="122.4199" x="115.5156" y="71.1387">API re&#231;oit la requ&#234;te</text><rect fill="#F1F1F1" height="33.9688" rx="12.5" ry="12.5" style="stroke:#181818;stroke-width:0.5;" width="165.3711" x="94.04" y="103.9688"/><text fill="#000000" font-family="sans-serif" font-size="12" lengthAdjust="spacing" textLength="145.3711" x="104.04" y="125.1074">Cr&#233;er Process (initiated)</text><rect fill="#F1F1F1" height="33.9688" rx="12.5" ry="12.5" style="stroke:#181818;stroke-width:0.5;" width="168.9746" x="92.2383" y="157.9375"/><text fill="#000000" font-family="sans-serif" font-size="12" lengthAdjust="spacing" textLength="148.9746" x="102.2383" y="179.0762">Pr&#233;senter JSON (topic/id)</text><rect fill="none" height="190.2031" style="stroke:#000000;stroke-width:1.5;" width="331.4512" x="11" y="201.9063"/><path d="M112.5811,201.9063 L112.5811,211.2031 L102.5811,221.2031 L11,221.2031" fill="none" style="stroke:#000000;stroke-width:1.5;"/><text fill="#000000" font-family="sans-serif" font-size="14" lengthAdjust="spacing" textLength="91.5811" x="14" y="215.9014">Message Bus</text><rect fill="#F1F1F1" height="33.9688" rx="12.5" ry="12.5" style="stroke:#181818;stroke-width:0.5;" width="311.4512" x="21" y="238.2031"/><text fill="#000000" font-family="sans-serif" font-size="12" lengthAdjust="spacing" textLength="291.4512" x="31" y="259.3418">Dispatch message (Messenger + ProcessStamp)</text><rect fill="#F1F1F1" height="33.9688" rx="12.5" ry="12.5" style="stroke:#181818;stroke-width:0.5;" width="113.4863" x="119.9824" y="292.1719"/><text fill="#000000" font-family="sans-serif" font-size="12" lengthAdjust="spacing" textLength="93.4863" x="129.9824" y="313.3105">Message en file</text><rect fill="#F1F1F1" height="33.9688" rx="12.5" ry="12.5" style="stroke:#181818;stroke-width:0.5;" width="138.0488" x="107.7012" y="346.1406"/><text fill="#000000" font-family="sans-serif" font-size="12" lengthAdjust="spacing" textLength="118.0488" x="117.7012" y="367.2793">R&#233;ception message</text><rect fill="none" height="136.2344" style="stroke:#000000;stroke-width:1.5;" width="229.6914" x="61.8799" y="402.1094"/><path d="M137.7578,402.1094 L137.7578,411.4063 L127.7578,421.4063 L61.8799,421.4063" fill="none" style="stroke:#000000;stroke-width:1.5;"/><text fill="#000000" font-family="sans-serif" font-size="14" lengthAdjust="spacing" textLength="65.8779" x="64.8799" y="416.1045">EventBus</text><rect fill="#F1F1F1" height="33.9688" rx="12.5" ry="12.5" style="stroke:#181818;stroke-width:0.5;" width="209.6914" x="71.8799" y="438.4063"/><text fill="#000000" font-family="sans-serif" font-size="12" lengthAdjust="spacing" textLength="189.6914" x="81.8799" y="459.5449">ProcessLoadedEvent d&#233;clench&#233;</text><rect fill="#F1F1F1" height="33.9688" rx="12.5" ry="12.5" style="stroke:#181818;stroke-width:0.5;" width="115.3086" x="119.0713" y="492.375"/><text fill="#000000" font-family="sans-serif" font-size="12" lengthAdjust="spacing" textLength="95.3086" x="129.0713" y="513.5137">Present Process</text><rect fill="#F1F1F1" height="33.9688" rx="12.5" ry="12.5" style="stroke:#181818;stroke-width:0.5;" width="239.2168" x="57.1172" y="558.3438"/><text fill="#000000" font-family="sans-serif" font-size="12" lengthAdjust="spacing" textLength="219.2168" x="67.1172" y="579.4824">Attacher callbacks (&#233;tat(s)/diffusion)</text><rect fill="#F1F1F1" height="33.9688" rx="12.5" ry="12.5" style="stroke:#181818;stroke-width:0.5;" width="151.2852" x="101.083" y="612.3125"/><text fill="#000000" font-family="sans-serif" font-size="12" lengthAdjust="spacing" textLength="131.2852" x="111.083" y="633.4512">Diffuser &#233;tat (started)</text><rect fill="#F1F1F1" height="33.9688" rx="12.5" ry="12.5" style="stroke:#181818;stroke-width:0.5;" width="134.8555" x="109.2979" y="710.2813"/><text fill="#000000" font-family="sans-serif" font-size="12" lengthAdjust="spacing" textLength="114.8555" x="119.2979" y="731.4199">Ex&#233;cution UseCase</text><rect fill="#F1F1F1" height="33.9688" rx="12.5" ry="12.5" style="stroke:#181818;stroke-width:0.5;" width="175.4199" x="89.0156" y="771.75"/><text fill="#000000" font-family="sans-serif" font-size="12" lengthAdjust="spacing" textLength="155.4199" x="99.0156" y="792.8887">Diffuser &#233;tat (in progress)</text><polygon fill="#F1F1F1" points="176.7256,666.2813,188.7256,678.2813,176.7256,690.2813,164.7256,678.2813,176.7256,666.2813" style="stroke:#181818;stroke-width:0.5;"/><polygon fill="#F1F1F1" points="124.5347,825.7188,228.9165,825.7188,240.9165,837.7188,228.9165,849.7188,124.5347,849.7188,112.5347,837.7188,124.5347,825.7188" style="stroke:#181818;stroke-width:0.5;"/><text fill="#000000" font-family="sans-serif" font-size="11" lengthAdjust="spacing" textLength="104.3818" x="124.5347" y="841.5269">Encore des items ?</text><text fill="#000000" font-family="sans-serif" font-size="11" lengthAdjust="spacing" textLength="16.7578" x="240.9165" y="835.1245">oui</text><rect fill="#F1F1F1" height="33.9688" rx="12.5" ry="12.5" style="stroke:#181818;stroke-width:0.5;" width="209.293" x="72.0791" y="869.7188"/><text fill="#000000" font-family="sans-serif" font-size="12" lengthAdjust="spacing" textLength="189.293" x="82.0791" y="890.8574">Diffuser &#233;tat (failed/completed)</text><ellipse cx="176.7256" cy="933.6875" fill="none" rx="10" ry="10" style="stroke:#222222;stroke-width:1.5;"/><line style="stroke:#222222;stroke-width:2.5;" x1="170.5384" x2="182.9128" y1="927.5003" y2="939.8747"/><line style="stroke:#222222;stroke-width:2.5;" x1="182.9128" x2="170.5384" y1="927.5003" y2="939.8747"/><line style="stroke:#181818;stroke-width:1;" x1="176.7256" x2="176.7256" y1="30" y2="50"/><polygon fill="#181818" points="172.7256,40,176.7256,50,180.7256,40,176.7256,44" style="stroke:#181818;stroke-width:1;"/><line style="stroke:#181818;stroke-width:1;" x1="176.7256" x2="176.7256" y1="83.9688" y2="103.9688"/><polygon fill="#181818" points="172.7256,93.9688,176.7256,103.9688,180.7256,93.9688,176.7256,97.9688" style="stroke:#181818;stroke-width:1;"/><line style="stroke:#181818;stroke-width:1;" x1="176.7256" x2="176.7256" y1="137.9375" y2="157.9375"/><polygon fill="#181818" points="172.7256,147.9375,176.7256,157.9375,180.7256,147.9375,176.7256,151.9375" style="stroke:#181818;stroke-width:1;"/><line style="stroke:#181818;stroke-width:1;" x1="176.7256" x2="176.7256" y1="272.1719" y2="292.1719"/><polygon fill="#181818" points="172.7256,282.1719,176.7256,292.1719,180.7256,282.1719,176.7256,286.1719" style="stroke:#181818;stroke-width:1;"/><line style="stroke:#181818;stroke-width:1;" x1="176.7256" x2="176.7256" y1="326.1406" y2="346.1406"/><polygon fill="#181818" points="172.7256,336.1406,176.7256,346.1406,180.7256,336.1406,176.7256,340.1406" style="stroke:#181818;stroke-width:1;"/><line style="stroke:#181818;stroke-width:1;" x1="176.7256" x2="176.7256" y1="191.9063" y2="238.2031"/><polygon fill="#181818" points="172.7256,228.2031,176.7256,238.2031,180.7256,228.2031,176.7256,232.2031" style="stroke:#181818;stroke-width:1;"/><line style="stroke:#181818;stroke-width:1;" x1="176.7256" x2="176.7256" y1="472.375" y2="492.375"/><polygon fill="#181818" points="172.7256,482.375,176.7256,492.375,180.7256,482.375,176.7256,486.375" style="stroke:#181818;stroke-width:1;"/><line style="stroke:#181818;stroke-width:1;" x1="176.7256" x2="176.7256" y1="380.1094" y2="438.4063"/><polygon fill="#181818" points="172.7256,428.4063,176.7256,438.4063,180.7256,428.4063,176.7256,432.4063" style="stroke:#181818;stroke-width:1;"/><line style="stroke:#181818;stroke-width:1;" x1="176.7256" x2="176.7256" y1="526.3438" y2="558.3438"/><polygon fill="#181818" points="172.7256,548.3438,176.7256,558.3438,180.7256,548.3438,176.7256,552.3438" style="stroke:#181818;stroke-width:1;"/><line style="stroke:#181818;stroke-width:1;" x1="176.7256" x2="176.7256" y1="592.3125" y2="612.3125"/><polygon fill="#181818" points="172.7256,602.3125,176.7256,612.3125,180.7256,602.3125,176.7256,606.3125" style="stroke:#181818;stroke-width:1;"/><line style="stroke:#181818;stroke-width:1;" x1="176.7256" x2="176.7256" y1="744.25" y2="771.75"/><polygon fill="#181818" points="172.7256,761.75,176.7256,771.75,180.7256,761.75,176.7256,765.75" style="stroke:#181818;stroke-width:1;"/><line style="stroke:#181818;stroke-width:1;" x1="176.7256" x2="176.7256" y1="690.2813" y2="710.2813"/><polygon fill="#181818" points="172.7256,700.2813,176.7256,710.2813,180.7256,700.2813,176.7256,704.2813" style="stroke:#181818;stroke-width:1;"/><line style="stroke:#181818;stroke-width:1;" x1="240.9165" x2="276.4355" y1="837.7188" y2="837.7188"/><polygon fill="#181818" points="272.4355,764.25,276.4355,754.25,280.4355,764.25,276.4355,760.25" style="stroke:#181818;stroke-width:1;"/><line style="stroke:#181818;stroke-width:1;" x1="276.4355" x2="276.4355" y1="678.2813" y2="837.7188"/><line style="stroke:#181818;stroke-width:1;" x1="276.4355" x2="188.7256" y1="678.2813" y2="678.2813"/><polygon fill="#181818" points="198.7256,674.2813,188.7256,678.2813,198.7256,682.2813,194.7256,678.2813" style="stroke:#181818;stroke-width:1;"/><line style="stroke:#181818;stroke-width:1;" x1="176.7256" x2="176.7256" y1="805.7188" y2="825.7188"/><polygon fill="#181818" points="172.7256,815.7188,176.7256,825.7188,180.7256,815.7188,176.7256,819.7188" style="stroke:#181818;stroke-width:1;"/><line style="stroke:#181818;stroke-width:1;" x1="176.7256" x2="176.7256" y1="646.2813" y2="666.2813"/><polygon fill="#181818" points="172.7256,656.2813,176.7256,666.2813,180.7256,656.2813,176.7256,660.2813" style="stroke:#181818;stroke-width:1;"/><line style="stroke:#181818;stroke-width:1;" x1="176.7256" x2="176.7256" y1="849.7188" y2="869.7188"/><polygon fill="#181818" points="172.7256,859.7188,176.7256,869.7188,180.7256,859.7188,176.7256,863.7188" style="stroke:#181818;stroke-width:1;"/><line style="stroke:#181818;stroke-width:1;" x1="176.7256" x2="176.7256" y1="903.6875" y2="923.6875"/><polygon fill="#181818" points="172.7256,913.6875,176.7256,923.6875,180.7256,913.6875,176.7256,917.6875" style="stroke:#181818;stroke-width:1;"/><!--SRC=[PP7TZjCm48Nl_HGZSR6fK5Nj7MelKBVRbK3yLAnuWC6U9ADDR6DFTa68vq7bDV9YZDD40bQ-SNncplbcSWLxA_p8yXqSOvEmD_c1VKIz0IxI3mDmW_QXIM7mxX2waE35tNKvHGd9KPfVhr-LOtx-PPDRTE69VGCrTfcCoO99ZDdkJsyWqVWhi427UlqwZB-5TcPxIEEP4fnIi9GpLEnP68NSIiMJYfcyQC7R-uyVe98GsMwuYAOWHdYlNTWGt0nP0RUtd2EARQ6VtwjIGBvHYvTBohrW7zL2wvTsyb1pHzFRf_5iAGe7lxZi37a7K-2IUtnKhZbqjdqNq96R173gqP6txNZUNKge3B8G_6EutOkWRPNGOjTzqUth7iQpe5HvjN5SrqDMcBAGs-b3AoSPgcc_qwxC5QpNQ_r3W-Q28v24BDINK1LCeaWe1UNuJTc6QRpFcGwOBrF_RyqUOWgDScUrlxJ3KwjBWkheRKWb9KF9oF1w1QpGOU2LUKvPetQvZGrzx6Z6rVd_0000]--></g></svg>