<svg xmlns="http://www.w3.org/2000/svg" xmlns:xlink="http://www.w3.org/1999/xlink" contentStyleType="text/css" data-diagram-type="ACTIVITY" height="902px" preserveAspectRatio="none" style="width:353px;height:902px;background:#FFFFFF;" version="1.1" viewBox="0 0 353 902" width="353px" zoomAndPan="magnify"><defs/><g><ellipse cx="176.7256" cy="20" fill="#222222" rx="10" ry="10" style="stroke:#222222;stroke-width:1;"/><rect fill="#F1F1F1" height="33.9688" rx="12.5" ry="12.5" style="stroke:#181818;stroke-width:0.5;" width="142.4199" x="105.5156" y="50"/><text fill="#000000" font-family="sans-serif" font-size="12" lengthAdjust="spacing" textLength="122.4199" x="115.5156" y="71.1387">API re&#231;oit la requ&#234;te</text><rect fill="#F1F1F1" height="33.9688" rx="12.5" ry="12.5" style="stroke:#181818;stroke-width:0.5;" width="165.3711" x="94.04" y="103.9688"/><text fill="#000000" font-family="sans-serif" font-size="12" lengthAdjust="spacing" textLength="145.3711" x="104.04" y="125.1074">Cr&#233;er Process (initiated)</text><rect fill="#F1F1F1" height="33.9688" rx="12.5" ry="12.5" style="stroke:#181818;stroke-width:0.5;" width="168.9746" x="92.2383" y="157.9375"/><text fill="#000000" font-family="sans-serif" font-size="12" lengthAdjust="spacing" textLength="148.9746" x="102.2383" y="179.0762">Pr&#233;senter JSON (topic/id)</text><rect fill="none" height="190.2031" style="stroke:#000000;stroke-width:1.5;" width="331.4512" x="11" y="201.9063"/><path d="M112.5811,201.9063 L112.5811,211.2031 L102.5811,221.2031 L11,221.2031" fill="none" style="stroke:#000000;stroke-width:1.5;"/><text fill="#000000" font-family="sans-serif" font-size="14" lengthAdjust="spacing" textLength="91.5811" x="14" y="215.9014">Message Bus</text><rect fill="#F1F1F1" height="33.9688" rx="12.5" ry="12.5" style="stroke:#181818;stroke-width:0.5;" width="311.4512" x="21" y="238.2031"/><text fill="#000000" font-family="sans-serif" font-size="12" lengthAdjust="spacing" textLength="291.4512" x="31" y="259.3418">Dispatch message (Messenger + ProcessStamp)</text><rect fill="#F1F1F1" height="33.9688" rx="12.5" ry="12.5" style="stroke:#181818;stroke-width:0.5;" width="113.4863" x="119.9824" y="292.1719"/><text fill="#000000" font-family="sans-serif" font-size="12" lengthAdjust="spacing" textLength="93.4863" x="129.9824" y="313.3105">Message en file</text><rect fill="#F1F1F1" height="33.9688" rx="12.5" ry="12.5" style="stroke:#181818;stroke-width:0.5;" width="138.0488" x="107.7012" y="346.1406"/><text fill="#000000" font-family="sans-serif" font-size="12" lengthAdjust="spacing" textLength="118.0488" x="117.7012" y="367.2793">R&#233;ception message</text><rect fill="none" height="136.2344" style="stroke:#000000;stroke-width:1.5;" width="270.9473" x="41.252" y="402.1094"/><path d="M117.1299,402.1094 L117.1299,411.4063 L107.1299,421.4063 L41.252,421.4063" fill="none" style="stroke:#000000;stroke-width:1.5;"/><text fill="#000000" font-family="sans-serif" font-size="14" lengthAdjust="spacing" textLength="65.8779" x="44.252" y="416.1045">EventBus</text><rect fill="#F1F1F1" height="33.9688" rx="12.5" ry="12.5" style="stroke:#181818;stroke-width:0.5;" width="209.6914" x="71.8799" y="438.4063"/><text fill="#000000" font-family="sans-serif" font-size="12" lengthAdjust="spacing" textLength="189.6914" x="81.8799" y="459.5449">ProcessLoadedEvent d&#233;clench&#233;</text><rect fill="#F1F1F1" height="33.9688" rx="12.5" ry="12.5" style="stroke:#181818;stroke-width:0.5;" width="250.9473" x="51.252" y="492.375"/><text fill="#000000" font-family="sans-serif" font-size="12" lengthAdjust="spacing" textLength="230.9473" x="61.252" y="513.5137">Attacher callbacks &amp; provider Mercure</text><rect fill="#F1F1F1" height="33.9688" rx="12.5" ry="12.5" style="stroke:#181818;stroke-width:0.5;" width="220.1387" x="66.6563" y="558.3438"/><text fill="#000000" font-family="sans-serif" font-size="12" lengthAdjust="spacing" textLength="200.1387" x="76.6563" y="579.4824">Publier &#233;tat via Mercure (started)</text><rect fill="#F1F1F1" height="33.9688" rx="12.5" ry="12.5" style="stroke:#181818;stroke-width:0.5;" width="134.8555" x="109.2979" y="656.3125"/><text fill="#000000" font-family="sans-serif" font-size="12" lengthAdjust="spacing" textLength="114.8555" x="119.2979" y="677.4512">Ex&#233;cution UseCase</text><rect fill="#F1F1F1" height="33.9688" rx="12.5" ry="12.5" style="stroke:#181818;stroke-width:0.5;" width="244.2734" x="54.5889" y="717.7813"/><text fill="#000000" font-family="sans-serif" font-size="12" lengthAdjust="spacing" textLength="224.2734" x="64.5889" y="738.9199">Publier &#233;tat via Mercure (in progress)</text><polygon fill="#F1F1F1" points="176.7256,612.3125,188.7256,624.3125,176.7256,636.3125,164.7256,624.3125,176.7256,612.3125" style="stroke:#181818;stroke-width:0.5;"/><polygon fill="#F1F1F1" points="124.5347,771.75,228.9165,771.75,240.9165,783.75,228.9165,795.75,124.5347,795.75,112.5347,783.75,124.5347,771.75" style="stroke:#181818;stroke-width:0.5;"/><text fill="#000000" font-family="sans-serif" font-size="11" lengthAdjust="spacing" textLength="104.3818" x="124.5347" y="787.5581">Encore des items ?</text><text fill="#000000" font-family="sans-serif" font-size="11" lengthAdjust="spacing" textLength="16.7578" x="240.9165" y="781.1558">oui</text><rect fill="#F1F1F1" height="33.9688" rx="12.5" ry="12.5" style="stroke:#181818;stroke-width:0.5;" width="278.1465" x="37.6523" y="815.75"/><text fill="#000000" font-family="sans-serif" font-size="12" lengthAdjust="spacing" textLength="258.1465" x="47.6523" y="836.8887">Publier &#233;tat via Mercure (failed/completed)</text><ellipse cx="176.7256" cy="880.7188" fill="none" rx="11" ry="11" style="stroke:#222222;stroke-width:1;"/><ellipse cx="176.7256" cy="880.7188" fill="#222222" rx="6" ry="6" style="stroke:#222222;stroke-width:1;"/><line style="stroke:#181818;stroke-width:1;" x1="176.7256" x2="176.7256" y1="30" y2="50"/><polygon fill="#181818" points="172.7256,40,176.7256,50,180.7256,40,176.7256,44" style="stroke:#181818;stroke-width:1;"/><line style="stroke:#181818;stroke-width:1;" x1="176.7256" x2="176.7256" y1="83.9688" y2="103.9688"/><polygon fill="#181818" points="172.7256,93.9688,176.7256,103.9688,180.7256,93.9688,176.7256,97.9688" style="stroke:#181818;stroke-width:1;"/><line style="stroke:#181818;stroke-width:1;" x1="176.7256" x2="176.7256" y1="137.9375" y2="157.9375"/><polygon fill="#181818" points="172.7256,147.9375,176.7256,157.9375,180.7256,147.9375,176.7256,151.9375" style="stroke:#181818;stroke-width:1;"/><line style="stroke:#181818;stroke-width:1;" x1="176.7256" x2="176.7256" y1="272.1719" y2="292.1719"/><polygon fill="#181818" points="172.7256,282.1719,176.7256,292.1719,180.7256,282.1719,176.7256,286.1719" style="stroke:#181818;stroke-width:1;"/><line style="stroke:#181818;stroke-width:1;" x1="176.7256" x2="176.7256" y1="326.1406" y2="346.1406"/><polygon fill="#181818" points="172.7256,336.1406,176.7256,346.1406,180.7256,336.1406,176.7256,340.1406" style="stroke:#181818;stroke-width:1;"/><line style="stroke:#181818;stroke-width:1;" x1="176.7256" x2="176.7256" y1="191.9063" y2="238.2031"/><polygon fill="#181818" points="172.7256,228.2031,176.7256,238.2031,180.7256,228.2031,176.7256,232.2031" style="stroke:#181818;stroke-width:1;"/><line style="stroke:#181818;stroke-width:1;" x1="176.7256" x2="176.7256" y1="472.375" y2="492.375"/><polygon fill="#181818" points="172.7256,482.375,176.7256,492.375,180.7256,482.375,176.7256,486.375" style="stroke:#181818;stroke-width:1;"/><line style="stroke:#181818;stroke-width:1;" x1="176.7256" x2="176.7256" y1="380.1094" y2="438.4063"/><polygon fill="#181818" points="172.7256,428.4063,176.7256,438.4063,180.7256,428.4063,176.7256,432.4063" style="stroke:#181818;stroke-width:1;"/><line style="stroke:#181818;stroke-width:1;" x1="176.7256" x2="176.7256" y1="526.3438" y2="558.3438"/><polygon fill="#181818" points="172.7256,548.3438,176.7256,558.3438,180.7256,548.3438,176.7256,552.3438" style="stroke:#181818;stroke-width:1;"/><line style="stroke:#181818;stroke-width:1;" x1="176.7256" x2="176.7256" y1="690.2813" y2="717.7813"/><polygon fill="#181818" points="172.7256,707.7813,176.7256,717.7813,180.7256,707.7813,176.7256,711.7813" style="stroke:#181818;stroke-width:1;"/><line style="stroke:#181818;stroke-width:1;" x1="176.7256" x2="176.7256" y1="636.3125" y2="656.3125"/><polygon fill="#181818" points="172.7256,646.3125,176.7256,656.3125,180.7256,646.3125,176.7256,650.3125" style="stroke:#181818;stroke-width:1;"/><line style="stroke:#181818;stroke-width:1;" x1="240.9165" x2="310.8623" y1="783.75" y2="783.75"/><polygon fill="#181818" points="306.8623,710.2813,310.8623,700.2813,314.8623,710.2813,310.8623,706.2813" style="stroke:#181818;stroke-width:1;"/><line style="stroke:#181818;stroke-width:1;" x1="310.8623" x2="310.8623" y1="624.3125" y2="783.75"/><line style="stroke:#181818;stroke-width:1;" x1="310.8623" x2="188.7256" y1="624.3125" y2="624.3125"/><polygon fill="#181818" points="198.7256,620.3125,188.7256,624.3125,198.7256,628.3125,194.7256,624.3125" style="stroke:#181818;stroke-width:1;"/><line style="stroke:#181818;stroke-width:1;" x1="176.7256" x2="176.7256" y1="751.75" y2="771.75"/><polygon fill="#181818" points="172.7256,761.75,176.7256,771.75,180.7256,761.75,176.7256,765.75" style="stroke:#181818;stroke-width:1;"/><line style="stroke:#181818;stroke-width:1;" x1="176.7256" x2="176.7256" y1="592.3125" y2="612.3125"/><polygon fill="#181818" points="172.7256,602.3125,176.7256,612.3125,180.7256,602.3125,176.7256,606.3125" style="stroke:#181818;stroke-width:1;"/><line style="stroke:#181818;stroke-width:1;" x1="176.7256" x2="176.7256" y1="795.75" y2="815.75"/><polygon fill="#181818" points="172.7256,805.75,176.7256,815.75,180.7256,805.75,176.7256,809.75" style="stroke:#181818;stroke-width:1;"/><line style="stroke:#181818;stroke-width:1;" x1="176.7256" x2="176.7256" y1="849.7188" y2="869.7188"/><polygon fill="#181818" points="172.7256,859.7188,176.7256,869.7188,180.7256,859.7188,176.7256,863.7188" style="stroke:#181818;stroke-width:1;"/><!--SRC=[VP51JiCm44NtESMe2vIAHVVf0fNI1OX2HCK1fiuq6P7OnfuK9CHvKBX6BiOaRO5LTzRyx_V_s54mI98jybi8r7yv5gXHZwzj_oqqJx9bw3iAa0TdA4P8sR8m2XLJ5NCL8rbHmztcyG5ISPxDZ0VHArYjpi9ahJUn9BXkumG-4e3iXgD7CHKqHoaTF6HB9LsUmZQ2ZLUI-ay4ih3ZciRPKzyPycF2aJ9FFl_7hlPQxI_pIBrtM50nQb0eeYPhghuRaGiHD9LsC5ZNMpGl4Ix01xVdGeTh2gODOqgMjzkQTTPtWW9xnfCAQHoUT7oVG9vG1l3gNPFQiTPpf2N6mmfdA6o7u39euryIl5MwFAGhQvnw2eh0Gas4gocm_erhUNgssWxrVZ4phl4r7Jf6_R8V]--></g></svg>